<?xml version="1.0" standalone="no"?><!DOCTYPE svg PUBLIC "-//W3C//DTD SVG 1.1//EN" "http://www.w3.org/Graphics/SVG/1.1/DTD/svg11.dtd"><svg t="1612624580444" class="icon" viewBox="0 0 1086 1024" version="1.1" xmlns="http://www.w3.org/2000/svg" p-id="8316" xmlns:xlink="http://www.w3.org/1999/xlink" width="50.90625" height="48"><defs><style type="text/css"></style></defs><path d="M569.4522725 991.9996175A478.27949719 478.27949719 0 0 1 229.28117563 850.5337325a20.26184156 20.26184156 0 0 1 28.73543812-28.57335281 439.03165781 439.03165781 0 1 0-121.56410437-383.45949563 20.26068375 20.26068375 0 1 1-39.95406844-6.76128 479.98139531 479.98139531 0 1 1 472.95383156 560.26001344z" fill="#666666" p-id="8317"></path><path d="M562.26262438 492.1164425L394.86306312 289.84535a20.2745775 20.2745775 0 0 1 31.25934094-25.82947781l136.14022032 164.53990968 141.07224843-170.46760687a20.2745775 20.2745775 0 0 1 31.25934094 25.82947781z" fill="#666666" p-id="8318"></path><path d="M700.17420594 484.07005625H419.45374531a20.26068375 20.26068375 0 0 1 0-40.5213675h280.72046063a20.26068375 20.26068375 0 0 1 0 40.5213675zM696.89776437 604.78900156H416.18888094a20.26068375 20.26068375 0 0 1 0-40.52136843H696.89776437a20.26068375 20.26068375 0 1 1 0 40.52136843z" fill="#666666" p-id="8319"></path><path d="M556.54332219 798.35378844a20.26068375 20.26068375 0 0 1-20.26068375-20.26068469V444.17387563a20.26068375 20.26068375 0 0 1 40.52136844 0v333.96553875a20.26068375 20.26068375 0 0 1-20.26068469 20.21437406z" fill="#666666" p-id="8320"></path><path d="M556.54332219 798.35378844a20.26068375 20.26068375 0 0 1-20.26068375-20.26068469V444.17387563a20.26068375 20.26068375 0 0 1 40.52136844 0v333.96553875a20.26068375 20.26068375 0 0 1-20.26068469 20.21437406zM32 419.65265844l53.83553156 213.59392031 128.510625-184.08278625z" fill="#666666" p-id="8321"></path></svg>