<?xml version="1.0" standalone="no"?><!DOCTYPE svg PUBLIC "-//W3C//DTD SVG 1.1//EN" "http://www.w3.org/Graphics/SVG/1.1/DTD/svg11.dtd"><svg t="1612769896647" class="icon" viewBox="0 0 1024 1024" version="1.1" xmlns="http://www.w3.org/2000/svg" p-id="8770" xmlns:xlink="http://www.w3.org/1999/xlink" width="48" height="48"><defs><style type="text/css"></style></defs><path d="M889.033587 105.993033 392.156006 105.993033c-34.967396 0-63.416332 28.447912-63.416332 63.415308L328.739675 274.290063c0 1.627057-0.89437 3.107781-2.335185 3.864004L151.137721 370.265952c-49.457412 25.991977-80.181157 76.847226-80.181157 132.717697l0 294.638507c0 12.716626 10.307763 23.024389 23.024389 23.024389 12.716626 0 23.024389-10.307763 23.024389-23.024389L117.005342 502.983649c0-38.71065 21.287839-73.947176 55.55427-91.955318l175.267792-92.111884c16.629749-8.741082 26.961048-25.840528 26.961048-44.626383L374.788453 169.408341c0-9.576099 7.79043-17.366529 17.367553-17.366529l496.877581 0c9.576099 0 17.367553 7.79043 17.367553 17.366529l0 628.213815c0 12.716626 10.307763 23.024389 23.024389 23.024389s23.024389-10.307763 23.024389-23.024389L952.449919 169.408341C952.448896 134.440945 924.000983 105.993033 889.033587 105.993033z" p-id="8771"></path><path d="M701.343881 677.872818c-58.155515 0-106.753349 41.674145-117.51853 96.723925L434.575118 774.596743c-10.766205-55.050804-59.364039-96.723925-117.519554-96.723925-66.028832 0-119.748315 53.719482-119.748315 119.748315 0 66.029856 53.719482 119.749338 119.748315 119.749338 58.155515 0 106.754373-41.674145 117.519554-96.724948l149.249209 0c10.766205 55.051827 59.364039 96.724948 117.51853 96.724948 66.029856 0 119.749338-53.719482 119.749338-119.749338C821.093219 731.5923 767.373737 677.872818 701.343881 677.872818zM317.054541 871.322715c-40.638559 0-73.699536-33.063023-73.699536-73.700559s33.062-73.699536 73.699536-73.699536 73.700559 33.062 73.700559 73.699536S357.6931 871.322715 317.054541 871.322715zM701.343881 871.322715c-40.638559 0-73.699536-33.063023-73.699536-73.700559s33.062-73.699536 73.699536-73.699536 73.700559 33.062 73.700559 73.699536S741.981417 871.322715 701.343881 871.322715z" p-id="8772"></path><path d="M390.122697 596.076884 390.122697 417.031045c0-12.715603-10.307763-23.024389-23.024389-23.024389s-23.024389 10.308787-23.024389 23.024389l0 132.99706L220.330616 550.028105c-12.716626 0-23.024389 10.307763-23.024389 23.024389s10.307763 23.024389 23.024389 23.024389L390.122697 596.076884z" p-id="8773"></path></svg>