<?xml version="1.0" standalone="no"?><!DOCTYPE svg PUBLIC "-//W3C//DTD SVG 1.1//EN" "http://www.w3.org/Graphics/SVG/1.1/DTD/svg11.dtd"><svg t="1613225904838" class="icon" viewBox="0 0 1194 1024" version="1.1" xmlns="http://www.w3.org/2000/svg" p-id="1633" xmlns:xlink="http://www.w3.org/1999/xlink" width="55.96875" height="48"><defs><style type="text/css"></style></defs><path d="M926.321778 9.443556c-102.115556 0-195.356444 58.083556-238.819556 148.366222a143.473778 143.473778 0 0 0-68.608-16.384c-20.935111 0-41.756444 5.176889-62.008889 15.473778C513.934222 65.308444 420.295111 6.371556 317.098667 6.371556 171.576889 6.371556 53.248 122.026667 53.248 264.192s118.328889 257.820444 263.793778 257.820444c145.464889 0 263.793778-115.655111 263.793778-257.820444 0-12.344889-0.910222-24.746667-2.673778-36.920889 9.614222-5.916444 23.893333-12.344889 40.675555-12.344889 23.267556 0 38.001778 7.395556 46.648889 14.108445a253.838222 253.838222 0 0 0-2.958222 38.229333c0 142.165333 118.328889 257.820444 263.793778 257.820444 145.464889 0 263.793778-115.655111 263.793778-257.820444S1071.786667 9.443556 926.321778 9.443556z m187.505778 258.730666c0 100.408889-83.626667 182.158222-186.481778 182.158222s-186.538667-81.749333-186.538667-182.158222 83.683556-182.101333 186.538667-182.101333c102.855111 0 186.481778 81.692444 186.481778 182.101333zM317.041778 447.260444c-103.367111 0-187.448889-82.090667-187.448889-183.068444 0-100.920889 84.081778-183.068444 187.448889-183.068444S504.490667 163.271111 504.490667 264.192c0 100.977778-84.081778 183.068444-187.448889 183.068444z m588.629333 236.088889c-74.524444 9.443556-127.488 21.333333-162.133333 36.352-22.869333 9.898667-32.085333 27.306667-35.214222 35.100445-12.629333-3.413333-54.044444-13.994667-84.309334-13.994667-32.540444 0-72.817778 15.758222-84.423111 20.593778-5.347556-7.736889-21.048889-28.501333-43.804444-40.334222-31.744-16.497778-100.579556-30.72-154.737778-37.432889-28.330667-3.242667-45.624889 13.937778-45.624889 30.264889l-8.817778 134.371555c0 106.723556 32.142222 164.636444 33.507556 167.025778l1.308444 2.332444 2.616889-0.227555c5.290667-0.568889 130.048-12.8 182.044445-47.843556 30.094222-20.309333 47.900444-48.981333 53.191111-58.311111 8.988444 2.503111 35.214222 9.045333 65.194666 9.045334 30.435556 0 60.302222-6.712889 70.200889-9.102223 4.551111 8.988444 19.569778 35.612444 47.957334 58.140445 49.152 39.139556 177.038222 47.786667 182.442666 48.071111l2.730667 0.170667 1.194667-2.503112c0.910222-1.820444 21.447111-45.966222 27.818666-169.016888l-3.299555-128.455112c0-14.392889-6.200889-39.537778-47.843556-34.247111z m-135.054222 216.405334a1043.626667 1043.626667 0 0 0-17.464889-16.611556c-16.213333-15.246222-29.127111-27.363556-32.369778-36.295111v-14.848c9.443556-8.248889 31.232-25.713778 56.149334-34.702222a335.36 335.36 0 0 1 99.441777-19.740445l3.868445 79.530667c-4.152889 60.700444-13.653333 72.874667-15.473778 74.638222a116.508444 116.508444 0 0 1-94.151111-31.914666zM648.533333 804.522667v53.475555a197.063111 197.063111 0 0 1-48.071111-0.056889v-53.361777c9.500444-2.104889 17.749333-3.185778 24.632889-3.185778 6.712889 0 14.620444 1.080889 23.438222 3.128889z m-260.892444 126.862222c-3.299556-1.536-23.438222-13.539556-23.438222-77.880889 0-45.511111 9.102222-72.817778 12.344889-80.782222 9.272889 0.739556 39.253333 3.584 63.772444 10.808889 47.104 13.880889 77.937778 46.08 82.716444 51.427555v13.539556a73.102222 73.102222 0 0 0-5.233777 10.695111c-6.200889 14.506667-16.554667 38.684444-39.822223 50.403555-37.262222 18.944-83.740444 21.504-90.339555 21.788445z" fill="#ffa500" p-id="1634"></path></svg>